<mxfile host="65bd71144e">
    <diagram id="l5U46Hb2RTufgkLz5ZlE" name="Page-1">
        <mxGraphModel dx="1987" dy="1015" grid="1" gridSize="10" guides="1" tooltips="1" connect="1" arrows="1" fold="1" page="1" pageScale="1" pageWidth="850" pageHeight="1100" math="0" shadow="0">
            <root>
                <mxCell id="0"/>
                <mxCell id="1" parent="0"/>
                <mxCell id="2" value="MessageBus service overview" style="text;html=1;strokeColor=none;fillColor=none;align=center;verticalAlign=middle;whiteSpace=wrap;rounded=0;fontSize=35;" vertex="1" parent="1">
                    <mxGeometry x="110" y="20" width="630" height="100" as="geometry"/>
                </mxCell>
                <mxCell id="3" value="Service&lt;br style=&quot;font-size: 25px;&quot;&gt;A&lt;br style=&quot;font-size: 25px;&quot;&gt;" style="rounded=0;whiteSpace=wrap;html=1;fontSize=25;fillColor=#6d8764;fontColor=#ffffff;strokeColor=#3A5431;" vertex="1" parent="1">
                    <mxGeometry x="305" y="160" width="140" height="120" as="geometry"/>
                </mxCell>
                <mxCell id="4" value="MessageBus&lt;br style=&quot;font-size: 15px;&quot;&gt;Facade" style="rounded=0;whiteSpace=wrap;html=1;fontSize=15;fillColor=#6a00ff;fontColor=#ffffff;strokeColor=#3700CC;" vertex="1" parent="1">
                    <mxGeometry x="445" y="160" width="100" height="120" as="geometry"/>
                </mxCell>
                <mxCell id="5" value="" style="rounded=0;whiteSpace=wrap;html=1;fontSize=15;fillColor=#6a00ff;fontColor=#ffffff;strokeColor=#3700CC;" vertex="1" parent="1">
                    <mxGeometry x="100" y="350" width="650" height="250" as="geometry"/>
                </mxCell>
                <mxCell id="6" value="MessageBus&amp;nbsp;" style="text;html=1;strokeColor=none;fillColor=none;align=center;verticalAlign=middle;whiteSpace=wrap;rounded=0;fontSize=35;" vertex="1" parent="1">
                    <mxGeometry x="293" y="370" width="265" height="50" as="geometry"/>
                </mxCell>
                <mxCell id="10" style="edgeStyle=none;html=1;entryX=1;entryY=0.5;entryDx=0;entryDy=0;fontSize=15;" edge="1" parent="1" source="7" target="9">
                    <mxGeometry relative="1" as="geometry">
                        <Array as="points"/>
                    </mxGeometry>
                </mxCell>
                <mxCell id="7" value="Push&lt;br style=&quot;font-size: 20px;&quot;&gt;Socket" style="ellipse;whiteSpace=wrap;html=1;aspect=fixed;fontSize=20;fillColor=#e3c800;fontColor=#000000;strokeColor=#B09500;" vertex="1" parent="1">
                    <mxGeometry x="640" y="440" width="100" height="100" as="geometry"/>
                </mxCell>
                <mxCell id="8" style="edgeStyle=none;html=1;fontSize=25;exitX=0.5;exitY=1;exitDx=0;exitDy=0;" edge="1" parent="1" source="4" target="7">
                    <mxGeometry relative="1" as="geometry">
                        <Array as="points">
                            <mxPoint x="495" y="320"/>
                            <mxPoint x="690" y="320"/>
                        </Array>
                    </mxGeometry>
                </mxCell>
                <mxCell id="12" style="edgeStyle=none;html=1;entryX=1;entryY=0.5;entryDx=0;entryDy=0;fontSize=15;" edge="1" parent="1" source="9" target="11">
                    <mxGeometry relative="1" as="geometry">
                        <Array as="points"/>
                    </mxGeometry>
                </mxCell>
                <mxCell id="9" value="Messages Queue" style="rounded=0;whiteSpace=wrap;html=1;fontSize=20;fillColor=#008a00;fontColor=#ffffff;strokeColor=#005700;" vertex="1" parent="1">
                    <mxGeometry x="302.5" y="455" width="245" height="70" as="geometry"/>
                </mxCell>
                <mxCell id="18" style="edgeStyle=none;html=1;entryX=0.5;entryY=0;entryDx=0;entryDy=0;fontSize=15;" edge="1" parent="1" source="11" target="17">
                    <mxGeometry relative="1" as="geometry">
                        <Array as="points">
                            <mxPoint x="160" y="640"/>
                            <mxPoint x="355" y="640"/>
                        </Array>
                    </mxGeometry>
                </mxCell>
                <mxCell id="11" value="Pull&lt;br style=&quot;font-size: 20px;&quot;&gt;Socket" style="ellipse;whiteSpace=wrap;html=1;aspect=fixed;fontSize=20;fillColor=#e3c800;fontColor=#000000;strokeColor=#B09500;" vertex="1" parent="1">
                    <mxGeometry x="110" y="440" width="100" height="100" as="geometry"/>
                </mxCell>
                <mxCell id="16" value="Service&lt;br style=&quot;font-size: 25px;&quot;&gt;B" style="rounded=0;whiteSpace=wrap;html=1;fontSize=25;fillColor=#6d8764;fontColor=#ffffff;strokeColor=#3A5431;" vertex="1" parent="1">
                    <mxGeometry x="405" y="680" width="140" height="120" as="geometry"/>
                </mxCell>
                <mxCell id="17" value="MessageBus&lt;br style=&quot;font-size: 15px;&quot;&gt;Facade" style="rounded=0;whiteSpace=wrap;html=1;fontSize=15;fillColor=#6a00ff;fontColor=#ffffff;strokeColor=#3700CC;" vertex="1" parent="1">
                    <mxGeometry x="305" y="680" width="100" height="120" as="geometry"/>
                </mxCell>
            </root>
        </mxGraphModel>
    </diagram>
</mxfile>